<?xml version="1.0" standalone="no"?>
<!DOCTYPE svg PUBLIC "-//W3C//DTD SVG 20010904//EN"
 "http://www.w3.org/TR/2001/REC-SVG-20010904/DTD/svg10.dtd">
<svg version="1.0" xmlns="http://www.w3.org/2000/svg"
 width="1127.000000pt" height="1280.000000pt" viewBox="0 0 1127.000000 1280.000000"
 preserveAspectRatio="xMidYMid meet">
<metadata>
Created by potrace 1.15, written by Peter Selinger 2001-2017
</metadata>
<g transform="translate(0.000000,1280.000000) scale(0.100000,-0.100000)"
fill="#000000" stroke="none">
<path d="M6775 12790 c-4 -6 1 -149 10 -318 l17 -307 -77 -480 c-76 -479 -77
-482 -206 -982 l-129 -503 -341 -566 -341 -565 39 -228 40 -228 -62 -31 c-35
-17 -88 -52 -120 -77 l-57 -47 -285 40 c-156 22 -286 41 -288 44 -2 2 26 279
61 617 36 337 63 615 61 618 -3 2 -254 -1 -558 -6 -305 -6 -732 -13 -949 -17
l-395 -6 -494 91 c-272 50 -498 94 -502 98 -4 5 -121 148 -261 319 l-254 311
-28 -14 c-15 -8 -25 -20 -23 -26 3 -7 108 -181 234 -387 l229 -375 545 -98
544 -99 835 12 c459 6 846 13 859 14 22 4 23 2 18 -43 -32 -281 -120 -1142
-116 -1145 2 -3 138 -40 302 -84 164 -44 300 -82 303 -85 3 -3 -5 -34 -19 -69
-14 -35 -39 -105 -57 -157 -47 -139 -46 -138 -138 -138 -82 0 -190 -23 -335
-71 -75 -25 -94 -28 -140 -20 -28 4 -239 37 -467 73 -228 35 -649 100 -935
145 -286 44 -574 89 -640 100 l-120 20 -665 -665 -665 -665 -315 -128 c-173
-71 -371 -152 -440 -180 -116 -47 -125 -53 -131 -81 -4 -20 -2 -31 5 -31 6 0
229 59 496 130 l484 129 647 647 647 647 919 -141 c505 -78 923 -142 928 -142
6 -1 3 -5 -6 -10 -10 -6 -39 -5 -80 2 -35 7 -154 12 -264 12 -170 0 -216 -3
-305 -23 -231 -49 -421 -151 -566 -303 -111 -116 -209 -271 -334 -523 -156
-317 -255 -626 -316 -985 -24 -145 -31 -500 -11 -625 63 -394 227 -611 527
-698 349 -101 876 -33 1295 167 210 100 368 217 460 338 119 156 294 609 415
1071 85 327 134 616 146 867 7 163 16 200 55 245 44 49 93 61 196 45 45 -7 87
-16 94 -20 8 -6 4 -72 -20 -271 -30 -253 -31 -280 -31 -653 l0 -388 -378 -812
-378 -811 -87 -1000 c-48 -550 -87 -1015 -87 -1033 0 -33 389 -1032 412 -1059
30 -37 131 -116 124 -98 -4 11 -86 276 -182 590 l-174 570 86 990 86 990 379
817 379 817 0 398 1 398 98 314 99 314 69 46 c38 26 91 64 117 85 l46 39 -18
-44 c-19 -43 -19 -57 -5 -439 8 -217 16 -408 19 -425 3 -22 100 -136 380 -445
l376 -415 -6 -550 c-3 -302 -2 -768 2 -1035 l8 -485 34 -60 c41 -71 424 -683
830 -1325 255 -402 299 -466 347 -506 31 -24 57 -43 60 -41 6 7 -145 353 -241
552 -126 260 -202 393 -455 795 -390 618 -384 609 -393 670 -4 30 -8 505 -8
1056 l0 1000 -380 419 -380 419 0 55 c0 31 -9 265 -20 521 -11 256 -20 480
-20 498 0 21 -4 31 -11 26 -22 -13 25 61 68 107 l45 48 191 -143 c106 -78 206
-152 222 -164 l30 -22 552 120 552 121 663 -443 c365 -243 674 -444 688 -446
14 -2 324 37 690 87 366 50 701 95 745 101 126 16 125 16 125 52 l0 31 -127
-7 c-71 -3 -413 -24 -762 -45 l-634 -39 -676 450 -675 451 -541 -117 c-297
-65 -547 -118 -557 -119 -10 -1 -58 50 -127 135 l-110 136 77 27 c284 99 432
234 432 394 l0 56 53 0 c120 0 265 113 389 302 112 170 144 287 135 487 -3 67
-9 132 -12 146 -6 24 -6 24 20 -5 166 -184 199 -215 251 -241 102 -50 239 -44
378 15 103 45 277 218 449 446 49 66 93 121 97 123 3 1 11 -17 17 -40 5 -24
65 -243 133 -488 67 -245 132 -480 144 -523 l21 -79 558 941 c306 517 557 944
557 948 0 8 -130 87 -134 81 -1 -1 -209 -353 -462 -780 -252 -427 -462 -774
-465 -770 -3 4 -18 50 -32 102 -14 52 -69 251 -121 442 -53 191 -96 353 -96
359 0 6 18 50 41 97 53 113 95 273 135 519 4 28 11 34 59 52 196 73 329 251
360 479 l7 52 -36 2 c-20 0 -42 1 -48 2 -8 1 -15 -20 -20 -54 -22 -179 -124
-321 -278 -387 l-25 -10 0 166 c0 194 -14 258 -71 320 -45 50 -180 110 -335
149 l-114 29 43 41 c67 66 150 87 335 87 l148 0 -3 45 -3 45 -132 3 c-150 3
-244 -12 -325 -53 -64 -32 -92 -57 -128 -113 l-28 -42 -138 -2 -139 -1 -375
172 c-508 234 -527 244 -510 247 8 2 380 56 825 119 446 63 820 117 832 120
18 4 32 -10 88 -89 l67 -95 57 41 c31 22 60 44 64 48 6 6 -100 166 -177 267
-1 1 -519 -72 -1151 -162 -633 -91 -1157 -165 -1164 -165 -9 0 -11 -3 -5 -9 7
-7 868 -405 1154 -533 l64 -29 -174 -90 c-235 -122 -331 -177 -485 -278 -171
-112 -301 -238 -346 -335 l-32 -68 7 -127 c7 -137 26 -238 55 -287 l18 -31
-74 5 c-226 14 -518 -113 -743 -325 -42 -39 -88 -89 -102 -110 -115 -174 -126
-201 -164 -408 -36 -193 -65 -280 -125 -369 -28 -42 -54 -78 -58 -80 -8 -5
-124 238 -124 259 0 6 147 256 326 556 l326 544 130 500 129 500 83 510 82
510 -89 323 c-83 301 -99 344 -119 312z"/>
</g>
</svg>
